<?xml version="1.0" standalone="no"?>
<!DOCTYPE svg PUBLIC "-//W3C//DTD SVG 20010904//EN"
 "http://www.w3.org/TR/2001/REC-SVG-20010904/DTD/svg10.dtd">
<svg version="1.0" xmlns="http://www.w3.org/2000/svg"
 width="400.000000pt" height="300.000000pt" viewBox="0 0 400.000000 300.000000"
 preserveAspectRatio="xMidYMid meet">

<g transform="translate(0.000000,300.000000) scale(0.100000,-0.100000)"
fill="#000000" stroke="none">
<path d="M1950 2950 c-11 -7 -6 -10 20 -10 26 0 31 3 20 10 -8 5 -17 10 -20
10 -3 0 -12 -5 -20 -10z"/>
<path d="M1903 2943 c-7 -3 -13 -14 -13 -26 0 -42 -15 -53 -53 -39 -47 17 -51
16 -91 -22 -37 -35 -51 -63 -16 -31 19 18 22 18 37 2 11 -11 13 -17 5 -17 -16
0 5 -38 31 -58 9 -7 17 -18 17 -24 0 -6 -9 -3 -20 7 -12 11 -20 13 -20 6 0 -7
-4 -10 -9 -7 -5 3 -15 -2 -22 -12 -13 -15 -12 -16 4 -3 20 16 24 -1 4 -18 -10
-8 -17 -7 -26 2 -11 10 -13 9 -9 -3 5 -14 13 -15 66 -8 8 1 10 9 6 22 -6 17
-4 19 7 9 11 -9 19 -8 33 3 17 12 18 14 3 14 -9 0 -17 5 -17 11 0 6 7 8 18 4
14 -5 15 -4 5 6 -7 7 -13 17 -13 22 0 4 6 5 13 0 6 -4 18 -8 26 -8 8 0 16 -6
18 -13 3 -7 -1 -10 -11 -6 -9 3 -16 1 -16 -6 0 -6 4 -9 9 -5 17 10 23 -16 11
-46 -16 -38 -7 -46 26 -25 14 10 28 16 30 13 2 -2 -14 -16 -36 -31 -24 -16
-40 -34 -40 -46 0 -11 -4 -20 -10 -20 -5 0 -10 7 -10 16 0 8 -4 13 -9 10 -11
-7 -7 -53 4 -64 5 -4 5 1 2 10 -8 23 19 13 28 -10 3 -9 3 -13 -1 -9 -4 4 -13
2 -20 -4 -9 -7 -18 -2 -34 21 -19 26 -19 30 -4 30 13 0 14 3 4 15 -8 10 -9 15
-2 15 7 0 9 7 5 17 -5 11 -3 14 6 8 10 -6 11 -3 2 14 -12 21 2 31 14 11 3 -5
12 -10 18 -10 7 0 3 7 -8 15 -25 20 -37 15 -42 -16 -2 -13 -10 -42 -19 -63
-12 -31 -12 -41 -3 -47 7 -4 17 -5 22 -2 5 3 7 0 5 -8 -3 -8 -12 -13 -21 -13
-14 2 -14 -2 4 -27 20 -29 45 -40 36 -16 -2 6 -10 11 -16 9 -13 -2 -14 8 -2
27 6 9 10 10 16 2 5 -9 11 -9 23 1 14 11 15 10 9 -6 -6 -14 -4 -17 8 -12 15 5
18 -1 17 -39 -1 -15 0 -16 4 -3 7 24 34 31 54 13 15 -14 18 -13 29 8 7 13 11
36 9 52 -2 16 2 30 10 32 7 3 10 -1 6 -11 -3 -9 -2 -16 4 -16 6 0 12 6 15 13
3 8 10 7 23 -7 17 -16 17 -18 2 -13 -12 4 -15 2 -12 -7 3 -8 14 -12 25 -9 10
3 19 1 19 -5 0 -19 -25 -19 -46 0 -16 15 -24 16 -29 7 -5 -7 -4 -10 2 -6 6 4
14 0 17 -9 3 -8 2 -13 -3 -10 -13 9 -33 -21 -28 -41 3 -15 6 -14 15 7 l11 25
1 -25 c0 -18 3 -21 9 -11 5 7 14 10 20 7 6 -4 11 -1 11 7 0 8 7 20 16 28 23
19 34 -4 34 -75 0 -51 -2 -57 -15 -46 -16 13 -20 3 -9 -24 3 -8 12 -12 20 -9
8 3 14 0 14 -6 0 -6 5 -11 12 -11 9 0 9 3 0 12 -15 15 -16 139 -1 192 9 34 8
41 -11 61 -14 15 -18 25 -11 30 18 11 13 27 -6 17 -10 -6 -17 -24 -18 -52 -1
-23 1 -36 5 -30 5 9 9 9 14 1 4 -6 2 -11 -4 -11 -6 0 -8 -6 -4 -12 4 -7 -2 -5
-13 4 -14 13 -18 27 -15 48 3 19 0 30 -8 30 -6 0 -18 7 -27 15 -8 8 -20 12
-26 8 -6 -4 -2 -9 11 -14 12 -5 22 -11 22 -15 0 -3 -7 -3 -16 0 -9 3 -12 2 -9
-5 4 -5 15 -7 25 -4 14 5 18 1 17 -15 -2 -24 -2 -24 -31 -5 -21 14 -24 13 -40
-4 -9 -10 -16 -29 -14 -42 2 -13 -1 -26 -7 -29 -18 -9 -17 51 0 71 10 10 15
25 11 35 -9 24 52 78 70 63 8 -7 12 -20 9 -30 -4 -11 -2 -19 4 -19 6 0 11 7
11 16 0 9 5 12 12 8 6 -4 8 -3 5 3 -8 12 20 39 30 30 3 -4 7 -24 8 -44 2 -23
8 -38 15 -38 16 0 56 52 47 61 -3 4 -11 -6 -17 -21 -14 -36 -30 -22 -37 34 -6
41 -17 53 -26 29 -4 -10 -6 -10 -6 -1 -1 6 4 15 9 18 6 3 10 10 10 16 0 5 -9
4 -20 -3 -13 -9 -18 -19 -14 -33 4 -16 3 -17 -5 -5 -5 8 -13 11 -17 7 -4 -3
-1 -13 6 -22 9 -11 9 -15 1 -15 -6 0 -15 8 -19 18 -5 11 -18 17 -39 17 -34 0
-45 -11 -17 -17 13 -2 12 -6 -7 -23 -20 -18 -22 -18 -16 -2 4 11 3 16 -3 12
-5 -3 -8 -21 -5 -40 3 -24 -1 -40 -13 -51 -9 -10 -15 -29 -14 -45 3 -21 -1
-27 -13 -25 -25 4 -39 32 -20 40 20 7 19 24 -1 22 -28 -2 -25 44 4 71 14 13
28 21 31 18 3 -3 -8 -17 -24 -31 l-30 -25 33 16 c18 9 32 23 32 33 0 10 5 23
10 28 11 11 4 44 -10 44 -4 0 -15 -9 -25 -20 -10 -11 -23 -20 -29 -20 -6 1 0
10 13 20 19 16 21 23 11 35 -6 8 -9 18 -7 22 10 16 -19 38 -50 39 -26 2 -33
-2 -33 -17 0 -12 -5 -16 -15 -13 -8 4 -15 18 -15 34 0 16 -7 30 -15 34 -22 8
-18 33 7 39 14 4 29 0 41 -11 11 -9 21 -16 23 -14 13 8 24 -1 24 -18 0 -11 5
-20 10 -20 6 0 10 6 9 13 -5 37 2 59 16 53 16 -6 20 5 8 18 -11 11 -10 30 1
38 13 9 5 17 -11 11z m213 -380 c-7 -7 -26 7 -26 19 0 6 6 6 15 -2 9 -7 13
-15 11 -17z"/>
<path d="M2043 2943 c33 -4 39 -8 44 -34 3 -16 10 -32 14 -35 5 -3 9 -24 10
-47 0 -23 3 -35 6 -27 3 8 11 18 17 22 7 5 6 8 -3 8 -11 0 -11 3 0 17 9 10 9
14 2 10 -8 -5 -18 9 -30 43 -17 49 -18 50 -58 48 l-40 -1 38 -4z"/>
<path d="M1940 2921 c-14 -4 -20 -10 -14 -14 6 -3 20 0 30 8 21 16 20 16 -16
6z"/>
<path d="M2008 2923 c7 -3 16 -2 19 1 4 3 -2 6 -13 5 -11 0 -14 -3 -6 -6z"/>
<path d="M2066 2897 c3 -10 9 -15 12 -12 3 3 0 11 -7 18 -10 9 -11 8 -5 -6z"/>
<path d="M1958 2883 c15 -6 15 -13 -3 -37 -12 -16 -17 -17 -30 -6 -21 17 -31
5 -12 -14 14 -14 18 -14 39 3 20 17 25 18 39 5 15 -13 19 -13 32 1 9 9 19 16
22 15 18 -1 17 2 -3 11 -13 5 -20 13 -17 19 3 5 1 10 -5 10 -7 0 -9 -8 -5 -19
3 -12 0 -21 -10 -25 -11 -4 -15 1 -15 19 0 19 -5 25 -22 24 -13 0 -17 -3 -10
-6z"/>
<path d="M2163 2868 c-12 -20 -11 -57 1 -52 6 2 11 18 11 34 0 34 -1 35 -12
18z"/>
<path d="M2225 2864 c13 -11 16 -18 8 -21 -24 -9 -63 -45 -63 -58 0 -22 22
-23 43 -2 10 10 17 21 14 23 -2 2 -10 -2 -17 -11 -7 -8 -18 -15 -24 -15 -6 1
7 16 28 35 34 29 38 35 27 49 -8 9 -19 16 -25 16 -6 0 -2 -8 9 -16z"/>
<path d="M2072 2840 c-10 -17 -10 -20 3 -20 8 0 15 9 15 20 0 11 -1 20 -3 20
-1 0 -8 -9 -15 -20z"/>
<path d="M2272 2833 c12 -3 16 -12 14 -26 -3 -12 -5 -27 -5 -34 -1 -8 -13 -11
-36 -8 -22 3 -35 1 -35 -7 0 -6 3 -8 6 -5 8 8 64 -24 64 -35 0 -12 -8 -10 -34
8 -16 10 -26 12 -31 5 -10 -17 -25 -13 -18 6 5 11 3 14 -6 8 -8 -4 -17 -2 -22
6 -7 11 -9 11 -9 -2 0 -9 7 -20 15 -23 12 -4 13 -10 6 -25 -9 -16 -6 -21 19
-30 20 -6 28 -15 24 -24 -3 -8 0 -18 6 -22 19 -11 20 -1 5 29 -19 36 -19 39 4
31 14 -4 29 5 54 32 37 39 42 60 7 28 -18 -16 -20 -16 -20 -2 0 10 4 17 10 17
5 0 6 8 3 17 -5 12 -2 15 9 10 14 -5 14 -2 1 24 -8 16 -22 28 -31 28 -15 -1
-15 -2 0 -6z m-17 -124 c11 -16 -5 -25 -16 -9 -8 13 -12 12 -24 -4 -8 -11 -18
-16 -22 -12 -9 9 24 36 43 36 7 0 16 -5 19 -11z"/>
<path d="M1830 2822 c0 -5 7 -9 15 -9 8 0 12 4 9 9 -3 4 -9 8 -15 8 -5 0 -9
-4 -9 -8z"/>
<path d="M1982 2799 c-13 -5 -29 -6 -34 -3 -6 4 -8 1 -6 -7 3 -8 12 -12 19
-10 8 2 33 4 57 3 23 0 42 4 42 9 0 6 -4 7 -10 4 -5 -3 -18 -2 -27 3 -11 6
-28 6 -41 1z"/>
<path d="M1687 2783 c-12 -11 -8 -40 7 -52 19 -16 46 -3 46 22 0 20 -1 20 -13
2 -17 -22 -41 -11 -34 16 5 20 4 23 -6 12z"/>
<path d="M2056 2765 c-22 -29 -76 -34 -96 -10 -7 8 -19 15 -27 15 -12 0 -13
-3 -3 -14 17 -22 80 -57 80 -46 0 6 7 10 15 10 19 0 67 49 60 61 -8 12 -8 12
-29 -16z"/>
<path d="M2125 2779 c-11 -17 1 -21 15 -4 8 9 8 15 2 15 -6 0 -14 -5 -17 -11z"/>
<path d="M2101 2764 c0 -11 3 -14 6 -6 3 7 2 16 -1 19 -3 4 -6 -2 -5 -13z"/>
<path d="M1855 2720 c-3 -5 -1 -10 4 -10 6 0 11 5 11 10 0 6 -2 10 -4 10 -3 0
-8 -4 -11 -10z"/>
<path d="M1760 2655 c-6 -14 -10 -41 -10 -58 l0 -31 16 22 c13 19 14 25 2 39
-11 15 -11 16 6 10 15 -6 17 -5 7 7 -9 11 -9 15 1 18 9 3 9 6 0 12 -8 4 -16
-2 -22 -19z"/>
<path d="M2140 2670 c0 -5 5 -10 11 -10 5 0 7 5 4 10 -3 6 -8 10 -11 10 -2 0
-4 -4 -4 -10z"/>
<path d="M2020 2650 c0 -5 5 -10 11 -10 5 0 7 5 4 10 -3 6 -8 10 -11 10 -2 0
-4 -4 -4 -10z"/>
<path d="M2178 2615 c-6 -14 -14 -25 -17 -25 -4 0 -7 -10 -8 -22 -2 -22 -1
-22 13 -4 8 11 14 26 14 33 0 7 5 13 10 13 14 0 -16 -56 -37 -70 -16 -10 -15
-11 5 -6 15 3 22 0 19 -7 -3 -7 -9 -11 -15 -10 -6 2 -9 -4 -6 -12 4 -9 0 -15
-9 -15 -12 0 -12 -6 2 -47 13 -39 16 -44 19 -24 3 19 6 21 13 10 6 -10 9 -8 9
11 0 14 7 36 15 50 21 36 18 49 -4 20 -11 -13 -18 -27 -15 -31 2 -4 -3 -12
-10 -18 -12 -10 -13 -8 -9 11 4 13 12 32 20 44 7 12 11 27 8 35 -7 19 10 43
24 35 16 -11 13 -26 -4 -20 -8 4 -15 1 -15 -6 0 -6 5 -8 10 -5 6 3 10 1 10 -6
0 -22 18 4 26 36 6 26 5 28 -8 18 -12 -11 -18 -10 -32 5 -9 10 -13 22 -9 25 3
4 3 7 -1 7 -3 0 -12 -11 -18 -25z"/>
<path d="M1927 2603 c-4 -3 -7 -11 -7 -17 0 -6 5 -5 12 2 6 6 9 14 7 17 -3 3
-9 2 -12 -2z"/>
<path d="M1900 2450 c-1 -3 -3 -30 -5 -60 -1 -32 1 -46 5 -35 6 16 9 13 12
-15 4 -31 5 -29 5 10 1 41 -11 112 -17 100z"/>
<path d="M1952 2405 c0 -16 2 -22 5 -12 2 9 2 23 0 30 -3 6 -5 -1 -5 -18z"/>
<path d="M1978 2390 c-7 -24 -3 -38 8 -28 3 4 4 17 2 30 l-3 23 -7 -25z"/>
<path d="M1823 2365 c0 -22 2 -30 4 -17 2 12 2 30 0 40 -3 9 -5 -1 -4 -23z"/>
<path d="M2021 2385 c0 -21 17 -67 18 -50 1 6 4 21 8 34 4 16 3 22 -5 18 -5
-4 -13 -1 -15 5 -3 7 -5 4 -6 -7z"/>
<path d="M2171 2364 c0 -11 3 -14 6 -6 3 7 2 16 -1 19 -3 4 -6 -2 -5 -13z"/>
<path d="M1960 2340 c0 -5 5 -10 10 -10 6 0 10 5 10 10 0 6 -4 10 -10 10 -5 0
-10 -4 -10 -10z"/>
<path d="M1862 2280 c-9 -22 -24 -41 -32 -44 -8 -2 3 -4 25 -4 22 0 34 2 28 5
-7 2 -13 12 -13 21 0 15 2 15 10 2 7 -11 10 -5 10 23 0 20 -3 37 -6 37 -3 0
-13 -18 -22 -40z"/>
<path d="M2091 2305 c-1 -25 15 -52 26 -42 4 5 2 11 -4 15 -6 4 -13 16 -16 27
l-5 20 -1 -20z"/>
<path d="M1945 2294 c-19 -14 -19 -14 5 -11 13 2 26 9 28 15 5 16 -9 14 -33
-4z"/>
<path d="M1810 2285 c0 -8 7 -15 16 -15 14 0 14 3 4 15 -7 8 -14 15 -16 15 -2
0 -4 -7 -4 -15z"/>
<path d="M2029 2293 c-11 -67 -3 -73 81 -63 55 7 60 14 8 10 -19 -1 -28 3 -28
13 0 8 -8 18 -17 22 -15 5 -16 4 -5 -6 17 -18 15 -29 -7 -29 -20 0 -36 37 -18
43 8 2 7 6 -1 11 -7 4 -13 4 -13 -1z"/>
<path d="M2120 2295 c0 -15 18 -40 24 -34 3 3 -1 14 -9 25 -8 10 -14 15 -15 9z"/>
<path d="M1900 2276 c0 -8 4 -17 9 -21 6 -3 9 4 8 15 -1 23 -17 28 -17 6z"/>
<path d="M2165 2279 c4 -5 16 -9 27 -9 26 0 19 9 -11 15 -12 2 -19 0 -16 -6z"/>
<path d="M1967 2253 c6 -15 4 -16 -9 -6 -8 7 -18 10 -21 6 -13 -13 -7 -20 18
-19 14 1 25 4 25 9 0 4 0 12 0 17 0 6 -4 10 -10 10 -5 0 -6 -8 -3 -17z"/>
<path d="M1788 2253 c6 -2 12 -9 12 -14 0 -6 -9 -5 -21 2 -17 9 -20 8 -17 -2
3 -8 -4 -20 -14 -29 -13 -11 -19 -31 -21 -76 -5 -83 -31 -128 -140 -237 -62
-63 -172 -122 -250 -135 -35 -6 -50 -17 -100 -77 -201 -239 -267 -571 -171
-862 47 -145 169 -329 278 -423 142 -122 326 -206 514 -234 51 -7 96 -16 99
-20 3 -3 -1 -14 -9 -23 -16 -18 -48 -77 -48 -88 0 -3 6 -5 14 -5 8 0 28 25 45
55 17 30 37 55 44 55 18 0 51 -38 67 -78 12 -31 33 -42 45 -22 9 14 -24 79
-47 91 -25 14 -16 24 24 27 406 29 763 325 869 722 29 111 32 320 5 420 -40
150 -90 255 -170 358 -58 76 -70 85 -146 112 -36 13 -87 34 -114 48 -51 25
-185 147 -173 158 16 17 243 -113 296 -170 34 -36 46 -33 24 7 -56 102 -149
160 -278 173 -56 6 -69 11 -91 37 -14 16 -28 42 -31 58 -6 30 -33 49 -33 23 0
-8 -7 -22 -15 -30 -9 -9 -15 -11 -15 -4 0 6 -4 8 -10 5 -5 -3 -10 2 -11 12 0
10 -3 13 -5 6 -3 -7 0 -21 6 -32 6 -12 7 -21 1 -21 -5 0 -12 7 -15 16 -3 8
-10 12 -16 9 -6 -4 -7 -12 -3 -18 4 -7 -2 -5 -12 3 -17 14 -18 13 -12 -3 6
-16 -4 -17 -133 -16 -96 1 -140 5 -140 13 0 7 -3 7 -8 1 -10 -14 -36 -12 -54
3 -8 6 -18 9 -22 5 -4 -4 -4 1 0 12 7 18 6 19 -10 6 -15 -13 -19 -13 -27 0 -5
8 -9 23 -8 34 0 28 16 103 18 85 1 -10 6 -7 17 8 15 22 17 22 31 5 13 -17 14
-16 9 7 -3 14 -6 31 -6 38 0 6 -8 12 -17 11 -11 0 -13 -3 -5 -6z m102 -243 c0
-5 -13 -10 -29 -10 -17 0 -33 5 -36 10 -4 6 8 10 29 10 20 0 36 -4 36 -10z
m210 2 c0 -5 -45 -10 -100 -11 -58 -1 -100 2 -100 8 0 5 45 10 100 10 55 1
100 -3 100 -7z m60 0 c0 -4 -11 -9 -25 -10 -14 -1 -25 3 -25 8 0 6 11 10 25
10 14 0 25 -4 25 -8z m-153 -72 c27 0 29 -3 25 -29 -3 -22 -8 -28 -23 -24 -10
3 -19 13 -19 22 0 14 2 14 11 1 9 -13 10 -13 6 0 -2 8 -11 16 -20 18 -11 2
-14 -2 -10 -17 3 -12 1 -21 -6 -21 -6 0 -11 6 -11 13 0 9 -2 9 -9 -1 -9 -14
-61 -19 -79 -8 -6 4 -8 14 -5 24 6 16 6 16 -10 0 -9 -9 -17 -21 -17 -26 0 -21
-35 -4 -41 19 -7 23 -13 9 -9 -21 1 -12 -2 -11 -17 3 -15 14 -15 19 -4 26 11
7 11 9 0 14 -8 3 32 6 88 6 93 1 102 3 97 19 -5 16 -5 16 9 0 8 -10 28 -18 44
-18z m269 -25 c0 -14 -3 -25 -8 -25 -4 0 -8 5 -8 10 0 6 -7 10 -15 10 -10 0
-12 -6 -8 -17 6 -16 5 -16 -10 -4 -11 8 -17 9 -17 3 0 -8 -8 -8 -22 -3 -13 5
-22 16 -20 25 2 9 -2 16 -8 16 -5 0 -10 -10 -10 -22 0 -17 -3 -19 -9 -9 -6 9
-11 10 -15 2 -10 -16 -36 -13 -36 4 0 8 6 12 14 9 8 -3 17 0 22 7 4 7 3 10 -4
5 -6 -3 -13 -2 -17 4 -7 12 -2 12 82 11 55 -1 62 1 56 16 -6 17 -5 17 13 1 10
-10 19 -29 20 -43z m-92 -109 c134 -31 298 -126 388 -225 259 -283 247 -712
-27 -986 -97 -97 -209 -161 -343 -196 -87 -23 -274 -28 -358 -9 -288 63 -507
274 -574 551 -98 410 195 819 632 879 82 11 197 5 282 -14z m475 -92 c51 -14
73 -27 112 -66 59 -59 64 -83 17 -73 -54 12 -130 55 -175 98 -41 39 -57 75
-30 64 7 -3 41 -13 76 -23z m-1218 -1 c-12 -22 -67 -74 -102 -95 -24 -15 -122
-48 -142 -48 -15 0 22 52 67 93 41 38 106 65 159 66 23 1 26 -2 18 -16z m-161
-187 c0 -51 -67 -142 -139 -188 -54 -34 -64 -35 -55 -5 26 85 49 116 132 173
53 37 62 40 62 20z m1596 -79 c31 -37 70 -125 59 -135 -9 -9 -93 48 -129 89
-38 41 -66 94 -66 124 0 25 94 -30 136 -78z m-1689 -187 c-3 -27 -15 -69 -25
-92 -21 -45 -87 -128 -103 -128 -14 0 1 110 22 150 21 43 87 120 101 120 7 0
9 -18 5 -50z m1689 18 c19 -18 43 -46 54 -63 19 -30 46 -163 35 -173 -11 -11
-75 63 -100 116 -25 53 -45 152 -31 152 4 0 22 -14 42 -32z m32 -255 c25 -59
29 -151 8 -198 l-13 -30 -15 30 c-44 84 -55 178 -31 259 7 25 24 6 51 -61z
m-1741 40 c17 -61 7 -146 -24 -207 l-30 -60 -13 40 c-20 59 -15 131 14 197 28
63 42 71 53 30z m50 -260 c24 -50 28 -69 27 -136 -1 -43 -6 -83 -12 -89 -15
-15 -64 74 -70 127 -5 53 6 155 18 155 5 0 21 -26 37 -57z m1638 -51 c0 -78
-3 -92 -29 -135 -38 -64 -51 -50 -50 56 0 69 4 90 28 136 37 72 51 57 51 -57z
m-1490 -183 c31 -49 64 -179 45 -179 -5 0 -29 20 -54 44 -49 48 -76 117 -76
190 l0 40 31 -30 c17 -16 42 -45 54 -65z m1371 26 c-8 -72 -39 -137 -82 -175
-30 -26 -54 -38 -54 -27 0 24 26 129 37 152 17 34 82 105 96 105 6 0 7 -23 3
-55z m-1225 -143 c24 -16 57 -43 71 -61 30 -35 71 -121 63 -130 -8 -8 -74 29
-113 63 -27 24 -92 130 -92 151 0 12 29 3 71 -23z m1069 23 c0 -16 -56 -114
-79 -138 -26 -29 -119 -82 -127 -74 -11 11 40 101 78 139 49 49 128 94 128 73z
m-859 -139 c61 -19 117 -55 158 -102 42 -47 31 -52 -57 -28 -56 15 -75 26
-119 70 -75 75 -71 87 18 60z m649 3 c0 -23 -107 -117 -146 -128 -68 -19 -114
-24 -114 -13 0 20 109 107 162 129 58 24 98 29 98 12z"/>
<path d="M1820 1919 c0 -5 5 -7 10 -4 6 3 10 8 10 11 0 2 -4 4 -10 4 -5 0 -10
-5 -10 -11z"/>
<path d="M1886 1921 c-4 -7 -5 -15 -2 -18 9 -9 19 4 14 18 -4 11 -6 11 -12 0z"/>
<path d="M2187 1923 c-4 -3 -7 -11 -7 -17 0 -6 5 -5 12 2 6 6 9 14 7 17 -3 3
-9 2 -12 -2z"/>
<path d="M2210 1919 c0 -5 5 -7 10 -4 6 3 10 8 10 11 0 2 -4 4 -10 4 -5 0 -10
-5 -10 -11z"/>
<path d="M1920 1773 c-168 -26 -339 -114 -440 -226 -19 -21 -49 -45 -67 -52
-45 -19 -75 -70 -69 -118 2 -21 -4 -64 -15 -100 -20 -66 -25 -127 -10 -127 5
0 12 23 16 50 8 59 26 57 23 -2 -3 -41 -2 -42 37 -50 33 -7 42 -6 52 9 15 20
17 53 3 53 -5 0 -10 -4 -10 -10 0 -5 -7 -10 -15 -10 -16 0 -19 18 -7 38 5 7
16 10 26 6 15 -6 17 -2 14 22 -2 21 -8 29 -23 29 -14 0 -22 -11 -30 -45 -6
-25 -14 -44 -18 -42 -10 3 -10 8 -2 48 5 27 2 39 -10 48 -17 12 -11 46 9 46 6
0 32 -7 58 -14 25 -8 49 -12 52 -9 14 14 3 25 -41 45 -27 11 -49 22 -51 23 -5
5 20 49 31 57 21 13 39 -4 33 -33 -3 -16 -3 -29 1 -29 26 0 86 27 94 43 10 17
8 18 -20 12 -27 -6 -32 -3 -41 19 -5 14 -16 26 -25 26 -23 0 -18 16 11 39 32
25 47 18 39 -19 -10 -48 42 -48 92 -1 12 12 31 21 42 21 31 0 31 23 0 60 -28
33 -38 70 -20 70 6 0 24 -20 42 -45 53 -74 83 -52 33 25 -23 35 -26 60 -6 60
4 0 18 -18 32 -40 28 -45 58 -52 99 -24 20 15 22 21 16 65 -13 91 21 49 37
-46 2 -11 10 -20 18 -20 12 0 14 12 11 63 -2 52 0 62 13 62 12 0 16 -11 16
-47 0 -53 11 -78 31 -71 9 3 12 21 10 60 -2 49 0 56 19 61 12 3 19 10 15 16
-6 11 -53 12 -105 4z m-109 -80 c20 -54 -10 -73 -37 -22 -13 26 -14 33 -2 40
21 14 28 11 39 -18z m-207 -115 c20 -28 20 -43 0 -62 -23 -24 -34 -19 -34 13
0 17 -6 31 -16 35 -13 5 -14 9 -4 21 18 21 36 19 54 -7z m-194 -125 c0 -5 -9
-19 -20 -33 -18 -23 -20 -24 -20 -4 0 20 17 44 32 44 4 0 8 -3 8 -7z"/>
<path d="M2196 1743 c-4 -4 3 -15 16 -25 l23 -18 -23 -20 c-13 -10 -30 -16
-37 -13 -19 7 -19 -6 0 -44 9 -17 25 -33 36 -36 19 -5 21 -2 15 24 -6 33 -6
33 29 17 21 -9 25 -16 20 -39 -11 -49 20 -42 55 12 17 27 34 49 38 49 4 0 18
-9 32 -20 21 -16 23 -22 14 -37 -7 -11 -21 -17 -37 -15 -25 2 -26 1 -20 -35
10 -62 43 -84 43 -27 0 16 6 24 17 24 9 0 25 8 35 17 18 16 21 14 63 -27 34
-33 42 -47 34 -57 -9 -10 -17 -8 -40 11 -32 27 -64 25 -72 -4 -3 -11 1 -27 9
-37 7 -10 14 -26 14 -35 0 -24 15 -30 45 -16 18 8 29 8 36 1 17 -17 1 -37 -17
-22 -22 18 -29 2 -9 -21 21 -24 48 -26 65 -5 9 11 9 21 -4 46 -20 39 -20 39
-1 39 14 0 55 -54 55 -73 0 -4 -25 -19 -55 -32 -84 -38 -69 -67 20 -40 27 8
53 11 57 7 4 -4 9 -23 10 -42 3 -29 0 -35 -17 -35 -11 0 -24 10 -30 23 -14 31
-20 28 -44 -21 -34 -70 -24 -101 18 -56 14 16 24 19 37 11 9 -5 25 -7 35 -5
11 3 19 0 19 -6 0 -6 6 -11 13 -11 11 0 12 12 6 53 -29 204 -177 400 -374 496
-92 45 -119 54 -129 44z m121 -69 c1 -5 -1 -15 -6 -23 -13 -20 -51 3 -44 28 4
15 10 18 26 12 12 -4 22 -12 24 -17z m184 -227 c-1 -12 -15 -9 -19 4 -3 6 1
10 8 8 6 -3 11 -8 11 -12z"/>
<path d="M1920 1588 c0 -42 14 -88 26 -88 8 0 14 -4 14 -10 0 -5 -9 -10 -21
-10 -11 0 -18 4 -14 9 3 5 1 12 -5 16 -5 3 -10 21 -10 40 0 40 -10 48 -45 39
-24 -6 -26 -10 -20 -40 7 -39 -10 -47 -19 -9 -7 28 -32 33 -61 12 -17 -13 -17
-16 -1 -47 11 -23 13 -37 6 -44 -7 -7 -10 -4 -10 10 -1 22 -22 54 -37 54 -5 0
-18 -9 -28 -20 -17 -18 -17 -21 -1 -46 10 -14 15 -29 11 -32 -4 -4 -11 0 -15
8 -28 45 -28 45 -49 26 -28 -25 -26 -47 4 -76 14 -13 25 -31 25 -39 -1 -10
-13 -3 -34 22 -18 20 -36 37 -39 37 -4 0 -14 -12 -23 -26 -17 -25 -17 -26 31
-74 62 -63 52 -77 -11 -16 l-48 47 -13 -32 c-7 -18 -10 -36 -6 -40 5 -4 67
-50 138 -103 72 -52 149 -109 172 -126 39 -30 63 -33 63 -8 0 5 -18 33 -40 61
-23 28 -39 55 -37 61 3 7 -14 12 -44 13 -28 0 -55 7 -64 16 -19 20 -20 33 0
17 12 -10 23 -6 62 19 50 33 116 46 77 15 -19 -15 -12 -15 30 2 14 5 17 4 12
-7 -3 -8 -9 -22 -12 -31 -4 -10 -9 -18 -13 -18 -4 0 -16 -6 -26 -14 -17 -12
-16 -16 30 -72 32 -40 45 -51 40 -34 -7 25 -7 25 11 5 11 -11 25 -31 32 -45
11 -23 12 -23 6 -2 -3 12 -7 39 -9 60 -3 36 -3 36 10 12 l13 -24 5 24 c4 23 4
24 6 3 1 -25 21 -32 21 -8 0 8 4 15 10 15 5 0 7 -8 4 -17 -2 -10 1 -8 7 5 7
12 10 24 8 26 -2 2 -28 6 -57 9 -92 10 -125 69 -57 101 51 25 93 9 130 -47 10
-15 20 -25 23 -22 3 3 -3 18 -14 33 -38 52 -38 52 10 52 35 0 51 -5 66 -22 22
-26 25 -43 8 -43 -7 0 -22 -14 -33 -32 -13 -20 -28 -32 -42 -33 -13 0 -23 -4
-23 -9 0 -5 -3 -17 -7 -27 -4 -12 -3 -15 5 -10 7 4 12 2 12 -6 0 -7 10 -2 21
12 20 24 20 24 9 2 -23 -46 -2 -31 46 33 27 35 53 65 58 65 9 0 0 -14 -48 -74
-45 -57 -22 -54 39 5 31 30 61 56 68 57 7 2 -19 -27 -57 -65 -41 -40 -71 -63
-73 -55 -3 6 -9 10 -14 6 -5 -3 -2 -12 6 -21 15 -14 18 -14 38 4 12 11 93 70
179 132 86 61 159 115 162 120 7 11 -14 61 -25 61 -4 0 -11 -5 -14 -10 -8 -14
-72 -40 -99 -41 -15 0 -10 -5 19 -18 l40 -18 -34 -17 c-32 -17 -36 -17 -80 -1
-66 25 -76 39 -23 32 39 -5 42 -4 25 9 -17 14 -16 15 7 10 14 -3 19 -3 13 0
-20 9 -15 24 8 24 11 0 18 4 15 9 -9 14 15 19 46 10 20 -5 31 -2 47 15 l21 23
-22 28 -22 28 -38 -44 c-49 -57 -61 -43 -13 16 l38 46 -23 24 c-28 30 -37 31
-45 5 -4 -11 -11 -18 -16 -15 -5 4 -5 14 1 26 12 22 7 34 -21 49 -16 9 -22 6
-37 -19 -16 -27 -17 -37 -7 -98 13 -76 3 -113 -36 -134 -21 -11 -42 -3 -23 9
13 9 26 42 16 42 -4 0 -13 -13 -20 -30 -13 -27 -47 -49 -59 -36 -3 3 0 12 7
21 18 22 17 85 -3 124 -20 41 -21 46 -4 63 14 14 38 108 31 120 -3 5 -18 8
-33 8 -30 0 -41 -18 -41 -67 0 -13 -5 -23 -10 -23 -7 0 -8 18 -4 50 l7 50 -37
0 -36 0 0 -45 c0 -25 4 -44 9 -42 12 3 100 -100 112 -131 17 -44 11 -88 -17
-116 -15 -14 -37 -26 -49 -26 -22 0 -23 2 -18 83 3 46 0 93 -5 107 -9 21 -11
12 -11 -48 -1 -96 -20 -142 -58 -142 -50 0 -102 46 -103 92 0 51 32 101 95
145 28 19 30 25 27 72 -4 51 -4 51 -38 51 -21 0 -34 -5 -34 -12z m-60 -102 c0
-8 -4 -17 -9 -21 -12 -7 -24 12 -16 25 9 15 25 12 25 -4z m60 -16 c0 -6 -13
-28 -29 -51 -42 -57 -48 -94 -22 -130 23 -31 27 -44 10 -33 -7 4 -28 8 -48 10
-19 1 -40 10 -47 18 -6 9 -15 16 -19 16 -4 0 -2 -7 5 -15 10 -12 10 -15 -3
-15 -22 0 -67 57 -67 84 0 27 19 87 32 101 15 16 27 -15 17 -42 -11 -30 -12
-90 -1 -97 5 -3 6 8 4 24 -6 38 2 66 32 114 22 37 24 38 34 19 9 -15 6 -29
-10 -62 -24 -48 -19 -98 12 -126 11 -10 20 -13 20 -7 0 7 -4 12 -9 12 -5 0
-14 15 -21 34 -13 40 -4 68 42 130 27 35 36 42 51 35 9 -6 17 -14 17 -19z
m195 20 c3 -5 2 -17 -3 -26 -8 -14 -10 -14 -21 0 -13 15 -8 36 9 36 5 0 12 -4
15 -10z m175 -50 c0 -5 -4 -10 -10 -10 -5 0 -10 5 -10 10 0 6 5 10 10 10 6 0
10 -4 10 -10z m20 -29 c0 -10 3 -32 6 -49 5 -25 1 -36 -21 -57 -29 -26 -47
-27 -25 0 8 10 11 30 7 59 -4 27 -2 47 5 54 17 17 28 15 28 -7z m-613 -98 c-4
-3 1 -12 10 -18 15 -11 13 -13 -14 -19 -46 -10 -99 26 -55 37 27 7 66 8 59 0z
m39 -58 c-4 -12 -2 -14 11 -7 17 10 53 5 53 -8 0 -13 -53 -30 -101 -32 -68 -2
-78 10 -32 38 45 27 78 32 69 9z m551 -44 c24 -14 41 -30 40 -36 -2 -5 -26
-11 -53 -13 -39 -2 -57 2 -84 20 -36 24 -52 58 -28 58 7 0 26 -7 42 -15 16 -9
31 -13 34 -10 3 2 -3 7 -12 11 -22 8 -21 25 2 17 9 -3 36 -18 59 -32z m-147
-70 c-5 -11 -15 -23 -22 -27 -7 -5 -8 -2 -3 7 21 37 44 55 25 20z m-327 -42
c32 -29 63 -61 69 -73 l11 -21 -23 20 c-60 52 -132 125 -124 125 5 0 35 -23
67 -51z m93 -16 c-5 -5 -36 50 -36 64 0 4 9 -7 21 -26 11 -18 18 -35 15 -38z
m29 17 c3 -5 1 -10 -4 -10 -6 0 -11 5 -11 10 0 6 2 10 4 10 3 0 8 -4 11 -10z
m145 -14 c0 -3 -4 -8 -10 -11 -5 -3 -10 -1 -10 4 0 6 5 11 10 11 6 0 10 -2 10
-4z"/>
<path d="M2186 1558 c-21 -69 -21 -74 6 -153 25 -74 40 -80 19 -8 -6 20 -5 35
2 42 22 22 46 100 33 109 -22 18 -56 24 -60 10z m26 -93 c0 -5 -5 -11 -11 -13
-6 -2 -11 4 -11 13 0 9 5 15 11 13 6 -2 11 -8 11 -13z"/>
<path d="M2388 1167 c-64 -45 -152 -106 -195 -134 -42 -29 -73 -53 -68 -53 6
0 98 45 205 99 177 90 195 101 192 123 -8 49 -15 48 -134 -35z"/>
<path d="M1504 1216 c-3 -14 -4 -30 -2 -36 4 -14 367 -204 375 -196 3 3 -10
14 -28 25 -45 27 -46 28 -176 120 -174 124 -161 117 -169 87z"/>
<path d="M2330 1059 c-107 -55 -188 -98 -179 -97 8 2 97 30 196 63 151 50 182
63 186 81 11 58 0 56 -203 -47z"/>
<path d="M1490 1117 l0 -35 182 -61 c100 -33 183 -59 186 -57 2 3 -279 147
-360 184 -5 2 -8 -12 -8 -31z"/>
<path d="M1356 1083 c-14 -15 -5 -43 14 -43 13 0 20 7 20 19 0 19 -23 35 -34
24z"/>
<path d="M2607 1074 c-11 -11 5 -34 24 -34 12 0 19 7 19 20 0 19 -28 28 -43
14z"/>
<path d="M1495 1024 c4 -22 8 -40 8 -40 4 -3 323 -44 341 -44 29 0 13 10 -40
25 -41 11 -193 57 -293 90 -23 7 -23 6 -16 -31z"/>
<path d="M2415 1029 c-49 -16 -132 -41 -182 -55 -51 -15 -93 -31 -93 -36 0 -5
3 -7 8 -5 4 3 88 15 187 28 99 12 181 22 182 23 0 1 4 18 8 39 9 45 9 45 -110
6z"/>
<path d="M1970 975 c0 -5 5 -17 10 -25 5 -8 10 -10 10 -5 0 6 -5 17 -10 25 -5
8 -10 11 -10 5z"/>
<path d="M1373 940 c-37 -22 -41 -44 -16 -80 10 -14 17 -27 16 -30 -3 -8 41 0
50 9 11 11 0 51 -14 51 -5 0 -9 -7 -9 -16 0 -9 -6 -14 -12 -11 -7 2 -13 15
-13 28 0 21 5 24 38 27 37 3 37 3 37 -34 0 -31 2 -35 15 -24 23 19 18 56 -11
79 -33 26 -41 26 -81 1z"/>
<path d="M1510 956 c0 -4 5 -16 10 -27 10 -18 23 -19 177 -19 92 0 163 4 158
8 -16 14 -345 49 -345 38z"/>
<path d="M2288 941 c-75 -9 -140 -19 -144 -23 -4 -5 71 -8 167 -8 176 0 199 4
199 37 0 17 -45 16 -222 -6z"/>
<path d="M2551 947 c-18 -18 -13 -25 44 -63 55 -37 79 -39 59 -6 -13 22 -7 52
11 52 7 0 15 7 19 15 4 13 -5 15 -59 14 -35 -1 -68 -6 -74 -12z m79 -27 c0 -5
-9 -10 -20 -10 -11 0 -20 5 -20 10 0 6 9 10 20 10 11 0 20 -4 20 -10z"/>
<path d="M2011 873 c23 -67 23 -63 3 -63 -8 0 -12 -4 -9 -10 4 -6 -17 -10 -57
-10 -56 -1 -65 -3 -82 -27 -18 -25 -18 -27 -1 -39 56 -41 235 -38 278 5 19 19
19 19 -6 35 -14 10 -37 19 -51 22 -21 3 -26 0 -26 -15 0 -11 -4 -22 -9 -25 -5
-3 -8 9 -6 26 2 34 -7 70 -31 126 -23 51 -25 38 -3 -25z m-51 -121 c0 -12 -23
-32 -37 -32 -11 0 -11 4 -1 20 13 20 38 28 38 12z"/>
<path d="M1548 893 c6 -2 18 -2 25 0 6 3 1 5 -13 5 -14 0 -19 -2 -12 -5z"/>
<path d="M1708 893 c6 -2 18 -2 25 0 6 3 1 5 -13 5 -14 0 -19 -2 -12 -5z"/>
<path d="M1888 883 c7 -3 16 -2 19 1 4 3 -2 6 -13 5 -11 0 -14 -3 -6 -6z"/>
<path d="M1938 883 c7 -3 16 -2 19 1 4 3 -2 6 -13 5 -11 0 -14 -3 -6 -6z"/>
<path d="M2128 883 c6 -2 18 -2 25 0 6 3 1 5 -13 5 -14 0 -19 -2 -12 -5z"/>
<path d="M2293 883 c9 -2 23 -2 30 0 6 3 -1 5 -18 5 -16 0 -22 -2 -12 -5z"/>
<path d="M2524 878 c-8 -12 22 -38 43 -38 7 0 13 -4 13 -8 0 -5 -18 -9 -41
-10 -42 -2 -59 -8 -59 -21 0 -9 65 -46 98 -56 33 -10 29 19 -5 35 l-28 14 45
6 c64 7 63 29 -5 62 -36 17 -57 22 -61 16z"/>
<path d="M2188 873 c7 -3 16 -2 19 1 4 3 -2 6 -13 5 -11 0 -14 -3 -6 -6z"/>
<path d="M1590 850 c8 -5 26 -10 39 -10 32 0 24 6 -19 14 -25 4 -31 3 -20 -4z"/>
<path d="M1678 853 c7 -3 16 -2 19 1 4 3 -2 6 -13 5 -11 0 -14 -3 -6 -6z"/>
<path d="M1748 853 c7 -3 16 -2 19 1 4 3 -2 6 -13 5 -11 0 -14 -3 -6 -6z"/>
<path d="M1855 850 c-12 -5 4 -6 40 -3 33 3 62 7 64 9 9 8 -85 2 -104 -6z"/>
<path d="M2108 853 c6 -2 18 -2 25 0 6 3 1 5 -13 5 -14 0 -19 -2 -12 -5z"/>
<path d="M2283 853 c9 -2 23 -2 30 0 6 3 -1 5 -18 5 -16 0 -22 -2 -12 -5z"/>
<path d="M2405 850 c-25 -11 1 -11 35 0 20 6 21 8 5 8 -11 0 -29 -3 -40 -8z"/>
<path d="M1443 824 c-54 -27 -56 -82 -5 -108 23 -12 33 -12 58 -1 49 21 59 68
21 103 -28 26 -32 26 -74 6z m65 -38 c3 -11 -4 -26 -14 -33 -45 -33 -87 4 -44
39 28 23 53 20 58 -6z"/>
<path d="M1660 820 c-20 -6 -21 -8 -5 -8 11 0 31 4 45 8 20 6 21 8 5 8 -11 0
-31 -4 -45 -8z"/>
<path d="M1738 823 c7 -3 16 -2 19 1 4 3 -2 6 -13 5 -11 0 -14 -3 -6 -6z"/>
<path d="M1598 813 c6 -2 18 -2 25 0 6 3 1 5 -13 5 -14 0 -19 -2 -12 -5z"/>
<path d="M1781 809 c13 -8 88 -14 78 -5 -2 2 -24 6 -48 9 -29 4 -40 2 -30 -4z"/>
<path d="M2078 813 c7 -3 16 -2 19 1 4 3 -2 6 -13 5 -11 0 -14 -3 -6 -6z"/>
<path d="M2138 813 c7 -3 16 -2 19 1 4 3 -2 6 -13 5 -11 0 -14 -3 -6 -6z"/>
<path d="M2205 810 l-40 -7 35 -1 c19 0 44 3 55 8 24 10 7 10 -50 0z"/>
<path d="M2330 810 c8 -5 28 -10 44 -10 39 0 30 6 -19 13 -27 4 -35 3 -25 -3z"/>
<path d="M2157 779 c7 -7 15 -10 18 -7 3 3 -2 9 -12 12 -14 6 -15 5 -6 -5z"/>
<path d="M1628 773 c6 -2 18 -2 25 0 6 3 1 5 -13 5 -14 0 -19 -2 -12 -5z"/>
<path d="M1818 773 c6 -2 18 -2 25 0 6 3 1 5 -13 5 -14 0 -19 -2 -12 -5z"/>
<path d="M2353 773 c9 -2 25 -2 35 0 9 3 1 5 -18 5 -19 0 -27 -2 -17 -5z"/>
<path d="M1665 750 c-13 -6 -2 -7 30 -3 28 3 52 7 54 9 9 8 -65 2 -84 -6z"/>
<path d="M2440 745 c0 -21 65 -117 73 -108 4 3 7 17 7 30 0 18 8 27 30 34 43
15 37 26 -22 44 -65 19 -88 19 -88 0z m68 -34 c3 -8 -1 -12 -9 -9 -7 2 -15 10
-17 17 -3 8 1 12 9 9 7 -2 15 -10 17 -17z"/>
<path d="M1524 695 c-35 -70 -26 -84 40 -55 26 11 54 20 61 20 25 0 22 -26 -6
-60 -20 -24 -26 -37 -18 -45 7 -7 19 1 41 27 24 31 35 37 54 32 39 -10 28 12
-24 45 -56 36 -57 36 -96 16 -38 -20 -43 -13 -16 24 20 29 20 51 1 51 -5 0
-21 -25 -37 -55z"/>
<path d="M1708 723 c7 -3 16 -2 19 1 4 3 -2 6 -13 5 -11 0 -14 -3 -6 -6z"/>
<path d="M2407 717 c-3 -8 -3 -25 0 -36 5 -19 2 -21 -27 -19 -44 4 -50 -18 -6
-26 18 -4 46 -16 60 -27 33 -26 55 -15 28 15 -11 11 -23 36 -25 55 -7 40 -22
59 -30 38z"/>
<path d="M1748 713 c6 -2 18 -2 25 0 6 3 1 5 -13 5 -14 0 -19 -2 -12 -5z"/>
<path d="M2268 713 c7 -3 16 -2 19 1 4 3 -2 6 -13 5 -11 0 -14 -3 -6 -6z"/>
<path d="M2308 713 c7 -3 16 -2 19 1 4 3 -2 6 -13 5 -11 0 -14 -3 -6 -6z"/>
<path d="M1733 683 c9 -2 23 -2 30 0 6 3 -1 5 -18 5 -16 0 -22 -2 -12 -5z"/>
<path d="M1875 680 c-13 -6 -15 -9 -5 -9 8 0 22 4 30 9 18 12 2 12 -25 0z"/>
<path d="M2278 683 c7 -3 16 -2 19 1 4 3 -2 6 -13 5 -11 0 -14 -3 -6 -6z"/>
<path d="M2078 673 c7 -3 16 -2 19 1 4 3 -2 6 -13 5 -11 0 -14 -3 -6 -6z"/>
<path d="M2238 673 c7 -3 16 -2 19 1 4 3 -2 6 -13 5 -11 0 -14 -3 -6 -6z"/>
<path d="M1948 643 c7 -3 16 -2 19 1 4 3 -2 6 -13 5 -11 0 -14 -3 -6 -6z"/>
<path d="M2083 643 c9 -2 23 -2 30 0 6 3 -1 5 -18 5 -16 0 -22 -2 -12 -5z"/>
<path d="M2150 640 c8 -5 24 -10 34 -10 26 0 18 6 -19 14 -22 5 -26 4 -15 -4z"/>
<path d="M1828 633 c6 -2 18 -2 25 0 6 3 1 5 -13 5 -14 0 -19 -2 -12 -5z"/>
<path d="M1998 633 c12 -2 32 -2 45 0 12 2 2 4 -23 4 -25 0 -35 -2 -22 -4z"/>
<path d="M2278 622 c-33 -20 -33 -23 -12 -65 19 -36 38 -57 53 -57 14 0 14 27
1 35 -6 4 -8 11 -5 16 10 15 43 10 54 -8 8 -14 12 -15 22 -6 10 10 8 17 -9 36
-12 13 -22 30 -22 39 0 30 -42 36 -82 10z m52 -21 c0 -5 -6 -14 -14 -20 -16
-13 -32 2 -21 19 8 12 35 13 35 1z"/>
<path d="M1908 613 c6 -2 18 -2 25 0 6 3 1 5 -13 5 -14 0 -19 -2 -12 -5z"/>
<path d="M1968 603 c7 -3 16 -2 19 1 4 3 -2 6 -13 5 -11 0 -14 -3 -6 -6z"/>
<path d="M2058 603 c6 -2 18 -2 25 0 6 3 1 5 -13 5 -14 0 -19 -2 -12 -5z"/>
<path d="M1746 568 c-48 -68 20 -138 89 -92 33 22 35 76 3 98 -33 23 -74 20
-92 -6z m68 -4 c21 -8 20 -43 0 -65 -13 -14 -21 -16 -35 -8 -21 11 -24 31 -9
60 11 20 19 23 44 13z"/>
<path d="M2183 578 c-6 -7 -11 -39 -12 -71 -2 -50 0 -58 14 -55 9 1 15 7 15
12 -3 16 25 26 59 19 40 -7 39 0 -13 61 -41 49 -48 53 -63 34z m37 -54 c0 -8
-4 -14 -10 -14 -5 0 -10 9 -10 21 0 11 5 17 10 14 6 -3 10 -13 10 -21z"/>
<path d="M2114 562 c-7 -4 -13 -16 -15 -27 -6 -28 -39 -33 -39 -6 0 15 -6 21
-21 21 -19 0 -20 -4 -14 -52 4 -29 9 -57 12 -61 9 -16 28 0 28 24 0 17 6 25
23 27 18 3 22 -1 22 -22 0 -19 5 -26 19 -26 17 0 19 5 14 38 -10 69 -18 92
-29 84z"/>
<path d="M1880 538 c0 -13 -3 -40 -6 -60 -5 -30 -3 -38 9 -38 8 0 17 9 20 20
3 14 14 20 31 20 32 0 35 17 4 22 -13 2 -23 10 -23 18 0 11 9 14 34 12 24 -3
32 0 29 10 -3 8 -23 14 -51 16 -43 3 -47 1 -47 -20z"/>
<path d="M1656 535 c-5 -14 17 -28 28 -18 10 10 7 21 -8 26 -8 3 -17 0 -20 -8z"/>
<path d="M2186 2253 c-10 -10 -7 -25 4 -18 6 3 7 -1 4 -10 -4 -10 -14 -15 -24
-12 -10 2 -17 -2 -17 -10 0 -8 6 -11 14 -8 7 3 20 8 28 11 8 3 15 2 15 -4 0
-5 11 -8 25 -7 21 3 25 -2 31 -31 3 -19 11 -37 17 -41 6 -4 8 2 4 18 -4 13 -7
29 -7 34 0 14 -52 70 -72 77 -9 4 -19 4 -22 1z"/>
<path d="M1898 2209 c15 -5 21 -13 16 -21 -4 -7 2 -4 14 6 12 11 22 21 22 23
0 1 -17 3 -37 2 -34 0 -35 -1 -15 -10z"/>
<path d="M2075 2210 c3 -5 11 -10 16 -10 6 0 7 5 4 10 -3 6 -11 10 -16 10 -6
0 -7 -4 -4 -10z"/>
<path d="M1995 2160 c-3 -5 3 -10 14 -10 10 0 22 -6 24 -12 4 -10 6 -10 6 -1
1 17 -36 36 -44 23z"/>
<path d="M2110 2146 c0 -14 5 -28 10 -31 6 -3 10 5 10 19 0 14 -4 28 -10 31
-6 3 -10 -5 -10 -19z"/>
<path d="M2198 2143 c7 -3 16 -2 19 1 4 3 -2 6 -13 5 -11 0 -14 -3 -6 -6z"/>
<path d="M1805 2100 c-3 -5 -1 -10 4 -10 6 0 11 5 11 10 0 6 -2 10 -4 10 -3 0
-8 -4 -11 -10z"/>
<path d="M2171 2094 c0 -11 3 -14 6 -6 3 7 2 16 -1 19 -3 4 -6 -2 -5 -13z"/>
<path d="M1855 2088 c11 -6 23 -16 26 -21 9 -13 39 -1 39 15 0 10 -2 10 -9 -1
-7 -11 -13 -11 -32 3 -13 9 -28 16 -34 16 -5 0 -1 -6 10 -12z"/>
<path d="M2135 2090 c3 -5 8 -10 11 -10 2 0 4 5 4 10 0 6 -5 10 -11 10 -5 0
-7 -4 -4 -10z"/>
<path d="M2050 2050 c-12 -8 -10 -10 8 -10 13 0 20 4 17 10 -7 12 -6 12 -25 0z"/>
<path d="M2100 2050 c-13 -8 -12 -10 3 -10 9 0 17 5 17 10 0 12 -1 12 -20 0z"/>
<path d="M1561 1979 c-88 -17 -157 -62 -206 -135 -33 -49 -32 -64 3 -32 45 42
145 106 223 143 75 35 70 42 -20 24z"/>
<path d="M1240 1896 c-58 -42 -99 -103 -117 -168 -15 -61 -17 -124 -4 -133 19
-11 90 101 124 196 19 53 40 105 46 117 16 30 4 27 -49 -12z"/>
<path d="M2733 1903 c8 -16 27 -65 41 -111 26 -78 109 -212 123 -198 14 13 13
79 -1 132 -18 70 -56 125 -116 169 -57 42 -65 43 -47 8z"/>
<path d="M1044 1663 c-14 -16 -37 -52 -51 -81 -22 -46 -24 -64 -21 -130 3 -42
10 -90 17 -107 12 -29 13 -29 26 -11 25 33 43 117 49 222 3 56 8 109 12 118 9
23 -2 20 -32 -11z"/>
<path d="M2947 1635 c9 -137 24 -228 43 -272 22 -50 31 -49 49 8 30 93 6 209
-58 280 l-38 43 4 -59z"/>
<path d="M910 1376 c-12 -28 -25 -78 -28 -112 -4 -55 -1 -70 26 -126 36 -74
59 -105 69 -94 15 15 7 180 -12 231 -10 28 -21 73 -25 100 l-7 50 -23 -49z"/>
<path d="M3080 1383 c0 -16 -11 -67 -25 -114 -24 -78 -30 -159 -17 -212 4 -17
5 -17 24 0 65 58 92 188 61 287 -20 66 -43 86 -43 39z"/>
<path d="M881 1035 c-1 -73 3 -98 20 -130 23 -44 69 -96 113 -128 l29 -20 -7
47 c-10 62 -34 118 -89 203 -24 37 -48 79 -55 93 -9 21 -11 10 -11 -65z"/>
<path d="M3121 1093 c-7 -18 -35 -67 -62 -110 -51 -79 -83 -166 -77 -204 3
-20 8 -17 56 26 83 75 117 161 104 265 l-7 55 -14 -32z"/>
<path d="M920 792 c0 -52 43 -138 95 -188 48 -47 137 -95 151 -81 12 12 -57
116 -108 162 -29 26 -72 66 -95 88 -38 35 -43 38 -43 19z"/>
<path d="M2990 707 c-97 -95 -152 -168 -137 -184 12 -12 92 27 140 68 26 23
56 58 67 79 19 37 44 129 38 136 -2 2 -51 -43 -108 -99z"/>
<path d="M1060 524 c0 -15 53 -93 82 -121 44 -43 138 -83 193 -83 25 0 45 4
45 9 0 22 -107 100 -178 131 -42 18 -89 42 -104 52 -27 19 -38 22 -38 12z"/>
<path d="M2920 508 c-19 -12 -57 -29 -84 -39 -72 -27 -196 -116 -196 -141 0
-15 79 -8 133 12 67 25 128 76 161 137 15 25 25 47 23 49 -2 2 -18 -6 -37 -18z"/>
<path d="M2730 298 c-14 -5 -63 -16 -110 -23 -118 -18 -248 -71 -227 -92 4 -3
42 -8 86 -11 103 -6 161 13 232 77 56 51 62 66 19 49z"/>
<path d="M1307 252 c31 -30 71 -56 99 -66 67 -23 224 -20 224 4 0 17 -141 70
-225 84 -49 8 -103 17 -120 21 -29 6 -28 4 22 -43z"/>
<path d="M1690 149 c-25 -4 -74 -8 -110 -8 l-65 -1 25 -20 c46 -35 153 -63
213 -56 62 8 165 52 151 66 -10 10 -117 31 -148 29 -12 -1 -41 -5 -66 -10z"/>
<path d="M2180 148 c-30 -5 -59 -14 -64 -19 -12 -11 61 -44 131 -60 62 -14
152 4 218 43 l40 23 -125 12 c-146 13 -130 13 -200 1z"/>
</g>
</svg>
